HIERARCHY
ROOT Hips
{
  OFFSET 0.0 0.0 0.0
  CHANNELS 6 XPOSITION YPOSITION ZPOSITION XROTATION YROTATION ZROTATION 
  JOINT Spine
  {
    OFFSET 0.0 0.118905 0.0
    CHANNELS 3 XROTATION YROTATION ZROTATION 
    JOINT Head
    {
      OFFSET 0.0 0.3439156 0.00139004
      CHANNELS 3 XROTATION YROTATION ZROTATION 
      End Site
      {
        OFFSET -0.0029 0.127742 0.0251395
      }
    }
    JOINT RightArm
    {
      OFFSET -0.192727 0.25291768 0.00229786
      CHANNELS 3 XROTATION YROTATION ZROTATION 
      JOINT RightForeArm
      {
        OFFSET -0.26364 0.00099144 -0.0142434
        CHANNELS 3 XROTATION YROTATION ZROTATION 
        JOINT RightHand
        {
          OFFSET -0.220324 0.00085362 0.0102216
          CHANNELS 3 XROTATION YROTATION ZROTATION 
          End Site
          {
            OFFSET -0.133284 -0.006 0.0150291
          }
        }
      }
    }
    JOINT LeftArm
    {
      OFFSET 0.192727 0.2529176801 0.00229786
      CHANNELS 3 XROTATION YROTATION ZROTATION 
      JOINT LeftForeArm
      {
        OFFSET 0.262597 0.00099144 -0.0142434
        CHANNELS 3 XROTATION YROTATION ZROTATION 
        JOINT LeftHand
        {
          OFFSET 0.220902 0.00085362 0.0102216
          CHANNELS 3 XROTATION YROTATION ZROTATION 
          End Site
          {
            OFFSET 0.13419 -0.006 0.0150291
          }
        }
      }
    }
  }
  JOINT RightUpLeg
  {
    OFFSET -0.089458 -0.0866707 0.00101652
    CHANNELS 3 XROTATION YROTATION ZROTATION 
    JOINT RightLeg
    {
      OFFSET 0.0 -0.444227 0.013727
      CHANNELS 3 XROTATION YROTATION ZROTATION 
      JOINT RightFoot
      {
        OFFSET 0.00253549 -0.420924 -0.0146059
        CHANNELS 3 XROTATION YROTATION ZROTATION 
        End Site
        {
          OFFSET 0.0004 -0.0441509 0.084991
        }
      }
    }
  }
  JOINT LeftUpLeg
  {
    OFFSET 0.089458 -0.0866707 0.00101652
    CHANNELS 3 XROTATION YROTATION ZROTATION 
    JOINT LeftLeg
    {
      OFFSET 0.0 -0.444227 0.013727
      CHANNELS 3 XROTATION YROTATION ZROTATION 
      JOINT LeftFoot
      {
        OFFSET -0.00253549 -0.420924 -0.0146059
        CHANNELS 3 XROTATION YROTATION ZROTATION 
        End Site
        {
          OFFSET -0.0004 -0.0441509 0.084991
        }
      }
    }
  }
}
MOTION
Frames: 8
Frame Time: 0.033333
1.692700000000000093e+00	9.910092123279999887e-01	3.867240000000000261e-02	-1.431501113464504442e+02	-8.467101091183414496e+01	-1.429051931248250185e+02	-1.126788728828964103e+01	-9.795423194141676670e-02	9.759682904865215614e-01	1.397324653178325171e+01	-5.276556819991466085e+00	2.723976436492544284e+00	9.236888467536990888e+00	-2.044572743842570262e+01	7.425707870921429787e+01	2.935559934773998592e+01	1.142957597395409586e+01	6.378203258047999924e+00	9.740259426497944517e+00	1.695463274576394230e+00	-6.656673295540325164e+00	8.971500474593431917e+00	1.143298525097302054e+01	-8.088489160693097801e+01	1.444125288301620103e+01	-1.219726566133462953e+01	-1.340542946863729945e+01	8.115144888243362331e+00	3.932253701131955381e+00	2.199671292342251050e+01	7.768238458884292319e-01	-7.656111186347436259e+00	-2.733983418509833285e+00	8.700362708421868874e+00	-1.056670332289516701e+01	-1.635460031885402232e+00	-3.780132917724538544e+01	1.134185096059363573e+01	8.125116416658409335e+00	-8.763179400383896978e-02	6.556254923000758517e+00	1.630815619111213532e+00	8.729545683287680546e+00	2.082637697756189255e+01	1.166072802530021324e+00	-3.436359300983125564e+01	1.731556466719981202e+01	3.967725871771828339e-01
1.692739999999999911e+00	9.910092123279999887e-01	3.881969999999999865e-02	-1.430904362759119977e+02	-8.465179895293626089e+01	-1.428540675270106988e+02	-1.119130473619434873e+01	-7.031870982403490289e-02	1.086559074922063495e+00	1.387291704350713317e+01	-5.342265655591975637e+00	2.632305411378618398e+00	9.242369389746627917e+00	-2.035666742764864523e+01	7.417665731584040145e+01	2.928459556053211443e+01	1.149307413386498666e+01	6.369808177795750481e+00	9.739209447805357911e+00	1.718994020918791943e+00	-6.741504972078746327e+00	8.862735674988966750e+00	1.134558120098379419e+01	-8.094283142128639952e+01	1.440501759416255467e+01	-1.217497970983927580e+01	-1.343881742887140796e+01	8.105996888225082131e+00	4.017702393460581334e+00	2.189952363467208940e+01	7.921588917575643762e-01	-7.674615676713713697e+00	-2.743982276072012727e+00	8.692518959461521533e+00	-1.052741813375589786e+01	-1.615696917673498323e+00	-3.778126719685180746e+01	1.136367752915226070e+01	8.098597750945213392e+00	-6.823835284727836070e-02	6.573308380151125618e+00	1.634977377606557258e+00	8.727349501168705004e+00	2.082676250279433106e+01	1.155637155126247873e+00	-3.436644499675584541e+01	1.730609251236882429e+01	4.110776002302898302e-01
1.692860000000000031e+00	9.910092123279999887e-01	3.910450000000000037e-02	-1.430512781101294024e+02	-8.465117381436029120e+01	-1.428179970783929775e+02	-1.108175188712342241e+01	-6.412358851312970065e-02	1.211306835638024104e+00	1.373661108777432460e+01	-5.453980824571969421e+00	2.501535238901125169e+00	9.229194217228213759e+00	-2.023870691996661719e+01	7.408351414587946238e+01	2.924800492728714474e+01	1.160397681292099037e+01	6.341218263092299523e+00	9.754303688275012263e+00	1.971399820925354263e+00	-6.811136299749296796e+00	8.801711654035759835e+00	1.084217087042149430e+01	-8.101338222828358937e+01	1.395506731409691703e+01	-1.220996291815705703e+01	-1.351631524620456482e+01	8.071814066327288373e+00	4.186088842329776405e+00	2.190258517441610664e+01	7.838246997765252466e-01	-7.709471037009274497e+00	-2.775860602107651065e+00	8.693292273476354026e+00	-1.048487162697010611e+01	-1.581710841306765092e+00	-3.775197848692889835e+01	1.139501671261807836e+01	8.060522256896593518e+00	-6.690719125804228673e-02	6.567598591864411972e+00	1.617936947936379655e+00	8.717445904732320727e+00	2.084225842871730450e+01	1.156314743118368460e+00	-3.436501416465949887e+01	1.729030764165913325e+01	4.340565167186984374e-01
1.692989999999999995e+00	9.910092123279999887e-01	3.940960000000000296e-02	-1.429379403823243706e+02	-8.467894653041047093e+01	-1.426951037060046303e+02	-1.099587376293875529e+01	-9.606713219535596704e-02	1.257816147427071929e+00	1.364165758445551369e+01	-5.510278093772626562e+00	2.405970225419454600e+00	9.277911730518010103e+00	-2.008162137119293789e+01	7.407515105430640290e+01	2.903471806115967979e+01	1.177890284477200389e+01	6.332709549824084405e+00	9.768287971573341721e+00	2.184314842743475094e+00	-6.830062348369449587e+00	8.828050717651745316e+00	1.020684939541157910e+01	-8.103404339453599903e+01	1.337353374297670072e+01	-1.226787712411014653e+01	-1.360072053517151858e+01	8.035215802420387021e+00	4.316624991141115864e+00	2.202128928725657175e+01	7.585751753484802906e-01	-7.742910631728212145e+00	-2.817488440967131691e+00	8.703763204140580356e+00	-1.047646445172512131e+01	-1.559210603201548695e+00	-3.773707691490728422e+01	1.140698237760396694e+01	8.046517431538516618e+00	-8.329192660139436710e-02	6.516689002247582074e+00	1.570708996707859129e+00	8.699234557066668927e+00	2.088248123372358478e+01	1.185719505872381951e+00	-3.435487459571398716e+01	1.727836774883541793e+01	4.501961662967999267e-01
1.693060000000000009e+00	9.910092123279999887e-01	3.966499999999999887e-02	-1.428299488288045609e+02	-8.470665141667994646e+01	-1.425744108430640154e+02	-1.096333554034169389e+01	-1.263017367259645918e-01	1.274191395817931616e+00	1.362360363719237455e+01	-5.477972183768992309e+00	2.300211301334181613e+00	9.385901886014277551e+00	-1.991238322776331060e+01	7.411548022243640332e+01	2.860162973684170851e+01	1.197060100826857365e+01	6.353699779742751019e+00	9.765062588592030579e+00	2.161708579757058768e+00	-6.893427465423507705e+00	8.817795063594003224e+00	1.001993249034223332e+01	-8.103148779291697679e+01	1.326919201475913646e+01	-1.224868135446615725e+01	-1.364458182877653414e+01	8.026064299425286208e+00	4.327162231993111341e+00	2.210239671157363972e+01	7.428311199409360910e-01	-7.762540796297942691e+00	-2.849133471700457054e+00	8.703286099235457485e+00	-1.048610881491549662e+01	-1.556389435657313802e+00	-3.773873729786959075e+01	1.139073176770830820e+01	8.068322748453340409e+00	-9.775267443144340651e-02	6.466537427751913647e+00	1.526080209380702435e+00	8.686704035094292564e+00	2.091251899813577708e+01	1.211155418109088444e+00	-3.434958906367365472e+01	1.727222967014468225e+01	4.584877796956653428e-01
1.693049999999999944e+00	9.910092123279999887e-01	3.984879999999999672e-02	-1.429216165214251646e+02	-8.472211573048291200e+01	-1.426583985431543340e+02	-1.099044894221775515e+01	-1.250890085710422983e-01	1.310101480623917070e+00	1.368397068696653207e+01	-5.419619299286459579e+00	2.162218416787574427e+00	9.446520673367190923e+00	-1.986495041764561620e+01	7.414430872588407340e+01	2.830564913858328779e+01	1.207038793085948747e+01	6.355424045329812088e+00	9.757863230773953234e+00	2.103787875607296520e+00	-7.009766113680070632e+00	8.750194470529338631e+00	1.026549768343910252e+01	-8.104586159846640214e+01	1.360051630510951348e+01	-1.217320072517630614e+01	-1.364151707792831658e+01	8.040259243650845988e+00	4.256602809141956989e+00	2.210269592849384779e+01	7.350820048514630223e-01	-7.768686310926955940e+00	-2.865184453543312859e+00	8.681124823036846294e+00	-1.048717842002159095e+01	-1.560745758892062351e+00	-3.774007544130225966e+01	1.136776144093489371e+01	8.099293743285961966e+00	-1.112325207551810025e-01	6.466929757375264209e+00	1.515564913156711047e+00	8.688094610054085010e+00	2.090282302605003650e+01	1.190930352425490168e+00	-3.435633819969603309e+01	1.726728598290439010e+01	4.666818148694048540e-01
1.692979999999999929e+00	9.910092123279999887e-01	3.995979999999999671e-02	-1.432252982042541021e+02	-8.473765791756839860e+01	-1.429601110461531164e+02	-1.106600909352403050e+01	-1.051271436925325237e-01	1.341141686677389755e+00	1.378430668283137273e+01	-5.371191988941523832e+00	2.071795137149825106e+00	9.440008717492437640e+00	-1.994997199711934144e+01	7.416097461208468644e+01	2.833677586822425454e+01	1.207035896325705693e+01	6.315530787419811887e+00	9.760956003687148552e+00	2.164164556360582026e+00	-7.052732014414151429e+00	8.746540556554466050e+00	1.044435940427977449e+01	-8.106395923223480793e+01	1.382813858112561078e+01	-1.212883430254585448e+01	-1.363125548332028103e+01	8.052814413780476244e+00	4.204681989995782132e+00	2.208920422325974897e+01	7.185814326655081130e-01	-7.762981204369530097e+00	-2.868259259094774194e+00	8.649543894291712220e+00	-1.048598158053876617e+01	-1.570251578380817525e+00	-3.772929411586652293e+01	1.136120059720787800e+01	8.109836632662386080e+00	-1.357602422232102590e-01	6.503878705721758635e+00	1.531800368874319140e+00	8.695061472648523804e+00	2.086994483275260492e+01	1.139930826125640007e+00	-3.437121330078602455e+01	1.726010220761583369e+01	4.792728299899752242e-01
1.692890000000000006e+00	9.910092123279999887e-01	4.001729999999999871e-02	-1.435915953877871800e+02	-8.475617714926791280e+01	-1.433323601737039894e+02	-1.115258082681721064e+01	-9.112265874745545391e-02	1.347377207275538558e+00	1.386419230778522049e+01	-5.284646150071843351e+00	2.077576342402006393e+00	9.440670191343134121e+00	-2.000447763409550817e+01	7.417752854769751991e+01	2.842780321363177620e+01	1.205920797322971083e+01	6.286073438854202777e+00	9.765383021961385523e+00	2.194878183771528324e+00	-6.966532955128697857e+00	8.804185511497903960e+00	1.045887367984617633e+01	-8.106897579224953176e+01	1.384265808786627261e+01	-1.210618605539477599e+01	-1.364470653701712521e+01	8.054650969109266256e+00	4.212800739577946096e+00	2.207165923232441784e+01	6.931241231193431274e-01	-7.742644144267993411e+00	-2.855827095316493924e+00	8.625907138994129753e+00	-1.050028335240489419e+01	-1.581658719681371839e+00	-3.771080774418331316e+01	1.136652558875711172e+01	8.105409553850734028e+00	-1.728469356160163284e-01	6.531624178495500921e+00	1.552016194079307798e+00	8.704726836683169822e+00	2.085076784110789916e+01	1.107385269502273895e+00	-3.438912942051454280e+01	1.725320751435699407e+01	4.918421910504423566e-01
